<svg xmlns="http://www.w3.org/2000/svg" version="1.1" xmlns:xlink="http://www.w3.org/1999/xlink" width="100%" height="100%" viewBox="0 0 1000 600"><rect width="1000" height="600" x="0" y="0" fill="#191919"/><g><circle r="166.66666666666666" cx="422.146494547526" cy="444.3686588378747" fill="#b88746" transform="matrix(0.48927543913744814,0,0,0.48927543913744814,0,82.58131255963337)"/><path d="M351.7798221397523 519.3686307309237L351.7798221397523 519.3686307309237Q331.6075187152783 519.3686307309237 316.73044493972867 510.7638825514215Q301.85337116417907 502.1276151478185 293.6898921220872 486.3680030974482Q285.5264130799954 470.57687182297707 285.5264130799954 449.26987633087634L285.5264130799954 449.26987633087634Q285.5264130799954 425.4413429107164 295.5180071199302 407.5069043973949Q305.509601159865 389.57246588407344 323.53859734548865 379.48631417183645Q341.5675935311123 369.36864323549867 365.17549238256714 369.36864323549867L365.17549238256714 369.36864323549867Q372.2042793570323 369.36864323549867 379.92648926171375 370.1566238380172Q387.64869916639526 370.9761236646364 394.23621700345007 372.1108157322631Q400.82373484050487 373.24550779988977 405.0157916459034 374.0334884024083Q409.2078484513019 374.8214690049268 409.2078484513019 374.8214690049268L409.2078484513019 374.8214690049268L410.1219059502234 376.17679564125865Q410.1219059502234 376.17679564125865 408.9872138825967 381.28290994557864Q407.85252181497003 386.3890242498987 406.3711182822352 395.0252916535016Q404.88971474950046 403.6300398330038 404.22781104338486 414.0944222344497L404.22781104338486 414.0944222344497L393.5427940732338 414.9769605092705Q393.5427940732338 414.9769605092705 393.8895055383419 411.1316151689801Q394.23621700345007 407.28626982868974 394.23621700345007 402.7475015581831L394.23621700345007 402.7475015581831Q394.23621700345007 392.06248458803196 386.16729563366044 387.4291586452231Q378.1298934879715 382.76431347831345 359.9748204059449 382.76431347831345L359.9748204059449 382.76431347831345Q342.702285598739 382.76431347831345 330.47282664765163 389.69854278047643Q318.2118484724635 396.60125285853866 311.7504075318116 409.87084620495045Q305.25744736705906 423.17195877546305 305.25744736705906 441.98893556360525L305.25744736705906 441.98893556360525Q305.25744736705906 461.97212364347484 311.7504075318116 476.8176781949237Q318.2118484724635 491.69475197047336 329.7794037174353 499.85823101256517Q341.34695896240714 508.02171005465704 357.0120133404753 508.02171005465704L357.0120133404753 508.02171005465704Q366.0895498814886 508.02171005465704 373.11833685595377 505.8784028158067Q380.14712383041893 503.73509557695627 384.1185460671123 501.5602691140052Q388.0899683038056 499.4169618751548 388.0899683038056 499.4169618751548L388.0899683038056 499.4169618751548L388.0899683038056 471.71156389060377Q388.0899683038056 464.020873210023 385.7260264962501 461.75148907476967Q383.3305654645938 459.4821049395164 375.6083555599123 459.4821049395164L375.6083555599123 459.4821049395164Q373.11833685595377 459.4821049395164 369.36754918796566 459.4821049395164Q365.64828074407825 459.4821049395164 362.81155057501155 459.4821049395164Q359.9748204059449 459.4821049395164 359.9748204059449 459.4821049395164L359.9748204059449 459.4821049395164L359.5020320444338 458.56804744059485L361.55078161098197 447.22112676432823Q361.55078161098197 447.22112676432823 365.9634729850856 447.4417613330334Q370.40768358329007 447.6623959017386 377.0897590926471 447.88303047044377Q383.8033538261049 448.1351842632497 390.35935243905897 448.1351842632497L390.35935243905897 448.1351842632497Q395.3709090710767 448.1351842632497 399.7836004451804 447.7884727981415Q404.22781104338486 447.4417613330334 407.0645412124515 447.22112676432823Q409.9012713815182 447.000492195623 409.9012713815182 447.000492195623L409.9012713815182 447.000492195623L410.7838096563389 451.98052960354005Q408.0731563836752 454.2499137387934 406.5917528509404 458.09525907908375Q405.1103493182056 461.97212364347484 404.44844561209004 468.7802760492349Q403.75502268187375 475.58842845499487 403.75502268187375 486.9353491312615L403.75502268187375 486.9353491312615Q403.75502268187375 492.8294440381 404.22781104338486 498.37682747983035Q404.6690801807952 503.9557301456615 405.3625031110115 506.8870179870304L405.3625031110115 506.8870179870304L403.97565725057893 508.9357675535785Q403.97565725057893 508.9357675535785 396.94687027611377 511.55186315393996Q389.91808330164855 514.1679587543015 378.1298934879715 516.7840543546629Q366.3101844501938 519.3686307309237 351.7798221397523 519.3686307309237ZM504.742616700647 519.3686307309237L504.742616700647 519.3686307309237Q484.09752491466173 519.3686307309237 468.9052588981048 510.7638825514215Q453.68147365744704 502.1276151478185 445.29736004665 486.3680030974482Q436.8817272117522 470.57687182297707 436.8817272117522 449.26987633087634L436.8817272117522 449.26987633087634Q436.8817272117522 431.99734152367046 442.8073413426915 417.3724215409268Q448.70143624953 402.7475015581831 459.3549339955803 391.9679269157297Q470.03995096573146 381.18835227327645 484.44423637976996 375.2627381423372Q498.84852179380846 369.36864323549867 516.0895373769138 369.36864323549867L516.0895373769138 369.36864323549867Q523.1183243513788 369.36864323549867 530.1786305499447 370.1566238380172Q537.20741752441 370.9761236646364 542.8808778625432 372.1108157322631Q548.5543382006765 373.24550779988977 552.0529720758589 374.0334884024083Q555.5831251751417 374.8214690049268 555.5831251751417 374.8214690049268L555.5831251751417 374.8214690049268L556.4971826740632 376.17679564125865Q556.4971826740632 376.17679564125865 555.3624906064365 381.28290994557864Q554.22779853881 386.3890242498987 552.8724719024781 395.0252916535016Q551.4856260420454 403.6300398330038 550.8237223359299 414.0944222344497L550.8237223359299 414.0944222344497L539.9180707970736 414.9769605092705Q539.9180707970736 414.9769605092705 540.2647822621818 411.2576920653831Q540.6114937272898 407.5069043973949 540.6114937272898 403.88219362580975L540.6114937272898 403.88219362580975Q540.6114937272898 393.19717665565867 532.3219377887951 387.99650467903643Q524.0323818503002 382.76431347831345 507.23263540460545 382.76431347831345L507.23263540460545 382.76431347831345Q492.0403693880485 382.76431347831345 480.81952560818473 390.0137350214838Q469.56716260422036 397.29467578875494 463.45243312867666 410.4381922387638Q457.3061844290322 423.6132279128734 457.3061844290322 441.7683009949001L457.3061844290322 441.7683009949001Q457.3061844290322 461.75148907476967 463.7991445937848 476.5970436262186Q470.26058553443664 491.4741174017681 481.95421767581144 499.7636733402629Q493.61633059308554 508.02171005465704 509.28138497115367 508.02171005465704L509.28138497115367 508.02171005465704Q524.7258047805167 508.02171005465704 534.1500527866381 499.2908849787518Q543.5427815686587 490.56005990284666 547.8609152704603 472.1843522521149L547.8609152704603 472.1843522521149L558.7665668093166 471.27029475319335Q558.7665668093166 471.27029475319335 558.0731438791004 474.67437095607335Q557.4112401729847 478.0784471589534 556.3711057776602 483.6258306006837Q555.3624906064365 489.20473326651484 554.3223562111123 495.6661742071667Q553.3137410398886 502.1276151478185 552.6203181096721 508.27386384746296L552.6203181096721 508.27386384746296L551.2649914733404 510.2910941899104Q551.2649914733404 510.2910941899104 545.2448196700989 512.5604783251637Q539.2561670909581 514.829862460417 528.791784689512 517.0992465956704Q518.358921512167 519.3686307309237 504.742616700647 519.3686307309237Z " fill="#191919" transform="matrix(0.48927543913744814,0,0,0.48927543913744814,0,82.58131255963337)"/><path d="M730.2341749626213 519.3686362646363L730.2341749626213 519.3686362646363Q712.5481035896951 519.3686362646363 699.504625952162 511.82442144462243Q686.4611483146289 504.25257213808845 679.3038163058978 490.43532887798983Q672.1464842971667 476.590451131371 672.1464842971667 457.90953824371775L672.1464842971667 457.90953824371775Q672.1464842971667 437.01786643444865 680.9066165240692 421.2938436044564Q689.6667487509718 405.56982077446423 705.4736750405247 396.7267850880011Q721.2806013300774 387.8561149150178 741.9788317337051 387.8561149150178L741.9788317337051 387.8561149150178Q748.1413222277091 387.8561149150178 754.9117714251573 388.54697707802273Q761.6822206226058 389.2654737275479 767.4578283053269 390.260315242275Q773.2334359880481 391.2551567570021 776.9088226952343 391.946018920007Q780.5842094024206 392.63688108301193 780.5842094024206 392.63688108301193L780.5842094024206 392.63688108301193L781.3856095115062 393.8251640033804Q781.3856095115062 393.8251640033804 780.3907679967791 398.3019508196524Q779.3959264820521 402.7787376359243 778.0971056156028 410.35058694245834Q776.7982847491536 417.8948017624722 776.2179605322294 427.0694512871777L776.2179605322294 427.0694512871777L766.8498696018826 427.8432169097432Q766.8498696018826 427.8432169097432 767.1538489536048 424.4718095542791Q767.4578283053269 421.10040219881506 767.4578283053269 417.12103613990666L767.4578283053269 417.12103613990666Q767.4578283053269 407.7529452095598 760.3833997561565 403.6906756910908Q753.3366056935062 399.6007716861016 737.4191414578726 399.6007716861016L737.4191414578726 399.6007716861016Q722.2754428448045 399.6007716861016 711.553262074968 405.68035872054503Q700.8034468186112 411.7323112684682 695.1383770819708 423.3664300934712Q689.4456728588102 435.0281834049945 689.4456728588102 451.5259718575522L689.4456728588102 451.5259718575522Q689.4456728588102 469.04623631135723 695.1383770819708 482.0620794623701Q700.8034468186112 495.10555709990314 710.9453033715237 502.2628891086342Q721.0871599244359 509.4202211173653 734.8214997249739 509.4202211173653L734.8214997249739 509.4202211173653Q742.7802318427908 509.4202211173653 748.9427223367948 507.5410760339919Q755.1052128307987 505.6619309506185 758.5871581323436 503.7551513807249Q762.0691034338885 501.87600629735147 762.0691034338885 501.87600629735147L762.0691034338885 501.87600629735147L762.0691034338885 477.58529264609814Q762.0691034338885 470.84247793517 759.9965169448736 468.8527949057158Q757.8962959693387 466.86311187626166 751.1258467718903 466.86311187626166L751.1258467718903 466.86311187626166Q748.9427223367948 466.86311187626166 745.6542184408913 466.86311187626166Q742.393349031508 466.86311187626166 739.9062452446902 466.86311187626166Q737.4191414578726 466.86311187626166 737.4191414578726 466.86311187626166L737.4191414578726 466.86311187626166L737.0046241600695 466.0617117671759L738.8008657838824 456.11329661990493Q738.8008657838824 456.11329661990493 742.66969389671 456.3067380255463Q746.5661564960578 456.5001794311877 752.4246676383397 456.69362083682904Q758.3108132671416 456.91469672899063 764.0587864633427 456.91469672899063L764.0587864633427 456.91469672899063Q768.452669820054 456.91469672899063 772.3214979328816 456.61071737726843Q776.2179605322294 456.3067380255463 778.7050643190472 456.11329661990493Q781.1921681058649 455.9198552142635 781.1921681058649 455.9198552142635L781.1921681058649 455.9198552142635L781.9659337284304 460.2861040844547Q779.5893678876935 462.2757871139089 778.2905470212442 465.64719446937295Q776.991726154795 469.04623631135723 776.4114019378708 475.0152853997198Q775.8034432344265 480.98433448808237 775.8034432344265 490.9327496353534L775.8034432344265 490.9327496353534Q775.8034432344265 496.10039861463025 776.2179605322294 500.96406824218496Q776.6048433435121 505.85537235625986 777.2128020469565 508.4253796026382L777.2128020469565 508.4253796026382L775.9968846400678 510.221621226451Q775.9968846400678 510.221621226451 769.8343941460638 512.5152836076275Q763.6719036520599 514.8089459888038 753.3366056935062 517.1026083699801Q742.9736732484322 519.3686362646363 730.2341749626213 519.3686362646363ZM838.6719000678751 519.3686362646363L838.6719000678751 519.3686362646363Q827.3417605945942 519.3686362646363 818.5816283676917 513.8141044740767Q809.8214961407892 508.2319381969968 804.9578265132345 498.2006195901653Q800.0941568856798 488.14166649681346 800.0941568856798 475.20872680536115L800.0941568856798 475.20872680536115Q800.0941568856798 460.89406278789903 806.146109433603 449.4533853685374Q812.2256964680464 438.01270794917576 822.7544358322415 431.32516221128805Q833.3108096829568 424.6652509599205 846.2437493744092 424.6652509599205L846.2437493744092 424.6652509599205Q857.57388884769 424.6652509599205 866.3340210745924 430.2474172370003Q875.094153301495 435.80194902756 879.9578229290497 445.75036417483096Q884.8491270431246 455.6987793221019 884.8491270431246 468.8527949057158L884.8491270431246 468.8527949057158Q884.8491270431246 482.9740175175366 878.7695400086812 494.4975983964588Q872.717587460758 506.0488137619012 862.2717515561235 512.7087250132688Q851.825915651489 519.3686362646363 838.6719000678751 519.3686362646363ZM844.2540663449549 509.6412970095269L844.2540663449549 509.6412970095269Q855.3907644125944 509.6412970095269 861.9677722044013 500.5771854309022Q868.517145509688 491.5130738522775 868.517145509688 476.0101269144469L868.517145509688 476.0101269144469Q868.517145509688 464.0720287377217 864.9522967485826 454.9250136995364Q861.359813500957 445.75036417483096 855.0038816013116 440.5827151955541Q848.6203152151461 435.4150662162772 840.2747002860465 435.4150662162772L840.2747002860465 435.4150662162772Q829.138002218407 435.4150662162772 822.5609944266001 444.5620812544625Q816.0116211213134 453.70909629264776 816.0116211213134 469.43311912263994L816.0116211213134 469.43311912263994Q816.0116211213134 481.3712172993651 819.5764698824188 490.43532887798983Q823.1689531300444 499.4718059700943 829.5248850296898 504.5565514898106Q835.9084514158554 509.6412970095269 844.2540663449549 509.6412970095269ZM897.367549436774 519.3686362646363L897.367549436774 519.3686362646363L898.1689495458596 511.21646274117813Q903.944557228581 509.6412970095269 906.2382196097573 507.1541932227091Q908.5318819909336 504.6670894358914 908.9187648022164 500.4666474848214Q909.3056476134991 496.29384002027166 909.3056476134991 490.1313495262676L909.3056476134991 490.1313495262676L909.3056476134991 392.4434396773706Q909.3056476134991 387.46923210373507 908.4213440448528 385.1755697225587Q907.5370404762065 382.8819073413823 905.0499366893888 382.3015831244582Q902.562832902571 381.69362442101385 897.5886253289354 382.3015831244582L897.5886253289354 382.3015831244582L896.9806666254912 381.88706582665526L897.7820667345769 375.11661662920693Q905.1328401489494 374.1217751144798 912.511248049842 372.74005078846994Q919.8620214642144 371.35832646246007 927.2127948785869 369.3686434330059L927.2127948785869 369.3686434330059L928.4287122854756 371.93865067938424Q927.6273121763899 373.3480094919143 926.8259120673041 381.00276225800894Q926.0245119582185 388.6575150241036 925.3336497952135 401.0930339581923Q924.6427876322085 413.528552892281 924.0348289287642 429.25257572227326Q923.4545047118401 444.97659855226544 923.1505253601179 462.46922851955026Q922.8465460083958 479.98949297335525 922.8465460083958 497.4821229406401L922.8465460083958 497.4821229406401Q922.8465460083958 503.4511720290027 924.4493462265672 506.0488137619012Q926.0245119582185 508.64645549479974 929.8104366114854 508.64645549479974L929.8104366114854 508.64645549479974L936.7743272145751 508.2319381969968L937.1612100258579 509.03333830608256L935.5860442942067 517.6000291273436Q932.408078344384 517.378953235182 927.1298914190263 517.1855118295407Q921.8517044936686 516.9920704238993 917.8723384347603 516.9920704238993L917.8723384347603 516.9920704238993Q914.2798551871346 516.9920704238993 908.8082268561355 517.6829325869043Q903.3365985251365 518.3737947499092 897.367549436774 519.3686362646363ZM1030.0959881932813 519.3686362646363L1030.0959881932813 519.3686362646363Q1014.5654067689303 519.3686362646363 1012.3822823338347 505.24741365281557L1012.3822823338347 505.24741365281557L1011.0005580078249 504.6670894358914Q1000.6376255627508 511.6309800389811 994.4751350687469 515.1958288000865Q988.3126445747429 518.7883120477122 986.1295201396473 518.7883120477122L986.1295201396473 518.7883120477122Q974.7717461798462 518.7883120477122 966.1221518990245 513.5101251223545Q957.4725576182028 508.2319381969968 952.581253504128 498.78094380708933Q947.7175838765733 489.3299494171819 947.7175838765733 476.8115270235326L947.7175838765733 476.8115270235326Q947.7175838765733 462.46922851955026 954.3774951279407 450.64166828890586Q961.0374063793082 438.7864735717413 972.3951803391093 431.739679509091Q983.7253198123902 424.6652509599205 997.2662182072868 424.6652509599205L997.2662182072868 424.6652509599205Q1000.0573013458268 424.6652509599205 1003.4287087012907 424.85869236556186Q1006.8001160567549 425.07976825772346 1011.0005580078249 425.4666510690062L1011.0005580078249 425.4666510690062L1011.0005580078249 392.4434396773706Q1011.0005580078249 386.8612734002907 1009.204316384012 384.2912661539124Q1007.4080747601992 381.69362442101385 1003.6221501069322 381.69362442101385L1003.6221501069322 381.69362442101385Q1002.0469843752809 381.69362442101385 1000.3336462110286 382.0805072322966Q998.6479425332967 382.49502453009956 998.6479425332967 382.49502453009956L998.6479425332967 382.49502453009956L999.4493426423824 375.11661662920693Q1004.6169916216593 374.53629241228276 1009.7846406009362 373.5414508975557Q1014.9799240667331 372.5466093828286 1019.3461729369244 371.5517678681015Q1023.7124218071154 370.55692635337437 1026.3100635400142 369.94896764993Q1028.9077052729126 369.3686434330059 1028.9077052729126 369.3686434330059L1028.9077052729126 369.3686434330059L1030.0959881932813 371.93865067938424Q1029.2945880841953 373.3480094919143 1028.4931879751098 380.89222431192815Q1027.6917878660238 388.4640736184622 1027.0009257030192 400.78905460647013Q1026.3100635400142 413.14167008099827 1025.7021048365696 428.5617135592683Q1025.1217806196455 443.98175703753833 1024.8178012679236 461.2809455991818Q1024.5138219162013 478.58013416082525 1024.5138219162013 496.10039861463025L1024.5138219162013 496.10039861463025Q1024.5138219162013 500.4666474848214 1026.696946351297 502.8708478120786Q1028.9077052729126 505.24741365281557 1032.6659954396596 505.24741365281557L1032.6659954396596 505.24741365281557Q1035.8715958760022 505.24741365281557 1038.5521410684614 503.94859278636625Q1041.2326862609207 502.67740640643717 1042.9183899386526 501.4614889995485Q1044.6040936163845 500.27320607918 1044.6040936163845 500.27320607918L1044.6040936163845 500.27320607918L1047.3951767549247 503.4511720290027Q1047.3951767549247 503.4511720290027 1046.0134524289147 505.4408550584569Q1044.6040936163845 507.43053808791115 1042.2275277756476 510.3321591725318Q1039.8509619349106 513.2061457706324 1036.7558994446485 515.8037875035309Q1033.6608369543865 518.3737947499092 1030.0959881932813 519.3686362646363ZM989.30748608947 505.85537235625986L989.30748608947 505.85537235625986Q992.8723348505754 505.85537235625986 996.6582595038425 504.25257213808845Q1000.4441841571096 502.67740640643717 1003.732688053013 500.5771854309022Q1007.0211919489165 498.47696445536724 1009.0108749783707 496.90179872371596Q1011.0005580078249 495.29899850554455 1011.0005580078249 495.29899850554455L1011.0005580078249 495.29899850554455L1011.0005580078249 440.77615660119545Q1011.0005580078249 440.77615660119545 1005.8052745420277 438.51012870653926Q1000.6376255627508 436.21646632536294 991.6840519302069 436.21646632536294L991.6840519302069 436.21646632536294Q978.364229427472 436.21646632536294 970.7094766613774 445.2529434174674Q963.0270894087624 454.3170549960921 963.0270894087624 470.04107782608435L963.0270894087624 470.04107782608435Q963.0270894087624 479.98949297335525 966.5090347103073 488.14166649681346Q969.9909800118522 496.29384002027166 975.9600291002148 501.07460618826576Q981.9290781885774 505.85537235625986 989.30748608947 505.85537235625986ZM1096.335852382194 519.3686362646363L1096.335852382194 519.3686362646363Q1083.8174299885445 519.3686362646363 1074.449339058198 513.8141044740767Q1065.108882614371 508.2319381969968 1059.8306956890133 498.3940609958066Q1054.5525087636556 488.5285493080962 1054.5525087636556 475.40216821100256L1054.5525087636556 475.40216821100256Q1054.5525087636556 465.2603116580902 1058.0344540652004 456.11329661990493Q1061.5163993667452 446.9662815817196 1067.7065243472694 439.89185303254914Q1073.8690148412734 432.81742448337866 1081.7172090130093 428.7551549649097Q1089.5930376712658 424.6652509599205 1098.5466113038096 424.6652509599205L1098.5466113038096 424.6652509599205Q1128.170780853461 424.6652509599205 1128.170780853461 453.51565488700635L1128.170780853461 453.51565488700635Q1128.170780853461 456.11329661990493 1127.783898042178 458.90437975844486Q1127.3970152308957 461.66782841046455 1126.9824979330924 463.270628628636L1126.9824979330924 463.270628628636L1124.4124906867141 465.64719446937295L1069.475131484562 465.64719446937295Q1069.2816900789207 483.36090032881935 1075.9416013302884 493.6132948278125Q1082.6291470681758 503.86568932680564 1094.7606866505425 505.55139300453766Q1106.8922262329093 507.23709668226974 1123.4176491719873 499.6928818622559L1123.4176491719873 499.6928818622559L1124.6059320923555 500.07976467353865L1126.789056527451 505.85537235625986Q1122.8096904685426 508.64645549479974 1117.3380621375436 511.82442144462243Q1111.8664338065446 515.0023873944451 1106.2842675294646 517.1855118295407Q1100.7297357389052 519.3686362646363 1096.335852382194 519.3686362646363ZM1070.2765315936476 458.2964210550005L1070.2765315936476 458.2964210550005L1106.2842675294646 456.5001794311877Q1109.2687920736462 456.11329661990493 1110.263633588373 455.1184551051778Q1111.2584751031004 454.1236135904507 1111.2584751031004 451.1390890462694L1111.2584751031004 451.1390890462694Q1111.2584751031004 443.1803569284526 1107.0027641789898 439.0075494639028Q1102.7194187683594 434.8071075128329 1094.7606866505425 434.8071075128329L1094.7606866505425 434.8071075128329Q1085.6136716123574 434.8071075128329 1078.8432224149092 441.08013595291766Q1072.0727732174605 447.35316439300243 1070.2765315936476 458.2964210550005ZM1200.7942114285393 519.3686362646363L1201.5956115376248 511.21646274117813Q1207.5646606259875 509.6412970095269 1210.1623023588859 506.5462345192648Q1212.7323096052646 503.4511720290027 1212.7323096052646 498.2835230497259L1212.7323096052646 498.2835230497259L1213.5337097143502 458.90437975844486Q1213.5337097143502 448.95596461117384 1209.2503643037198 443.5672397397354Q1204.9946533796092 438.2061493548171 1197.0359212617923 438.2061493548171L1197.0359212617923 438.2061493548171Q1192.2551550937983 438.2061493548171 1187.280947520163 440.19583238427134Q1182.3067399465272 442.1855154137255 1178.4102773471795 444.5620812544625Q1174.541449234352 446.9662815817196 1172.5517662048978 448.5414473133709L1172.5517662048978 448.5414473133709Q1172.3583247992565 453.70909629264776 1172.0543454475342 460.78352484181823Q1171.7503660958118 467.8579533909887 1171.44638674409 475.20872680536115Q1171.1700418788878 482.55950021973365 1170.9489659867263 488.5285493080962Q1170.755524581085 494.4975983964588 1170.755524581085 497.4821229406401L1170.755524581085 497.4821229406401Q1170.755524581085 503.6722479211643 1172.4412282588169 506.15935170798207Q1174.154566423069 508.64645549479974 1177.9128565898159 508.64645549479974L1177.9128565898159 508.64645549479974Q1179.7090982136287 508.64645549479974 1182.3067399465272 508.4253796026382Q1184.8767471929054 508.2319381969968 1184.8767471929054 508.2319381969968L1184.8767471929054 508.2319381969968L1185.2912644907087 509.03333830608256L1183.4950228668959 517.6000291273436Q1183.4950228668959 517.6000291273436 1180.5104983227143 517.378953235182Q1177.5259737785332 517.1855118295407 1173.3531663139834 517.1026083699801Q1169.1803588494336 516.9920704238993 1165.3944341961665 516.9920704238993L1165.3944341961665 516.9920704238993Q1161.221626731617 516.9920704238993 1156.634301969264 517.2960497756214Q1152.0469772069114 517.6000291273436 1148.8690112570885 517.8763739925456Q1145.691045307266 518.1803533442678 1145.691045307266 518.1803533442678L1145.691045307266 518.1803533442678L1146.6858868219929 510.0281798208096Q1152.4614945047142 509.03333830608256 1154.8380603454511 506.43569657318403Q1157.2422606727082 503.86568932680564 1157.2422606727082 498.2835230497259L1157.2422606727082 498.2835230497259L1157.2422606727082 449.72973023373936Q1157.2422606727082 442.9869155228113 1155.0315017510925 440.2787358438319Q1152.8483773159974 437.59819065137276 1147.4872869310789 437.59819065137276L1147.4872869310789 437.59819065137276L1145.3041624959833 437.59819065137276L1144.696203792539 436.79679054228706L1145.3041624959833 430.2474172370003Q1152.2680530990729 429.05913431663186 1158.6239849987182 427.7603134501826Q1164.9799168983636 426.46149258373333 1169.069820903353 425.4666510690062Q1173.159724908342 424.4718095542791 1173.159724908342 424.4718095542791L1173.159724908342 424.4718095542791L1174.3480078287107 426.0746097724506Q1174.3480078287107 426.0746097724506 1173.4360697735442 430.05397583135897Q1172.5517662048978 434.03334189026737 1172.1648833936151 439.2009908695442L1172.1648833936151 439.2009908695442L1172.5517662048978 439.78131508646834Q1174.3480078287107 438.5930321660999 1178.2168359415382 436.10592837928215Q1182.1132985408858 433.61882459246436 1186.590085357158 431.048817346086Q1191.06687217343 428.4511756131875 1195.2396796379794 426.5720305298141Q1199.4124871025292 424.6652509599205 1201.7890529432661 424.6652509599205L1201.7890529432661 424.6652509599205Q1214.3351098234361 424.6652509599205 1221.6858832378084 431.6291415630102Q1229.0642911387008 438.5930321660999 1229.0642911387008 450.3376889371837L1229.0642911387008 450.3376889371837Q1229.0642911387008 452.93533067008224 1228.649773840898 458.90437975844486Q1228.2628910296153 464.8734288468074 1227.654932326171 472.22420226117987Q1227.0746081092466 479.5749756755523 1226.6600908114438 486.34542487300064Q1226.273208000161 493.11587407044897 1226.273208000161 497.4821229406401L1226.273208000161 497.4821229406401Q1226.273208000161 503.25773062336134 1227.8760082183326 505.9382758158205Q1229.451173949984 508.64645549479974 1233.2370986032506 508.64645549479974L1233.2370986032506 508.64645549479974Q1235.0333402270635 508.64645549479974 1237.6033474734418 508.4253796026382Q1240.2009892063406 508.2319381969968 1240.2009892063406 508.2319381969968L1240.2009892063406 508.2319381969968L1240.5878720176233 509.03333830608256L1239.012706285972 517.6000291273436Q1239.012706285972 517.6000291273436 1237.32700260824 517.4894911812629Q1235.6136644439875 517.378953235182 1232.9331192515288 517.2960497756214Q1230.2525740590695 517.1855118295407 1227.1575115688074 517.1026083699801Q1224.0900835650655 516.9920704238993 1221.2990004265257 516.9920704238993L1221.2990004265257 516.9920704238993Q1218.1210344767028 516.9920704238993 1214.639089175158 517.378953235182Q1211.1571438736132 517.7934705329851 1207.9791779237903 518.1803533442678Q1204.7735774874477 518.5948706420708 1202.7838944579935 518.9817534533536Q1200.7942114285393 519.3686362646363 1200.7942114285393 519.3686362646363L1200.7942114285393 519.3686362646363ZM1352.424638964861 519.3686362646363L1352.424638964861 519.3686362646363Q1334.3240502941321 519.3686362646363 1320.9765933048766 511.82442144462243Q1307.6567708021416 504.25257213808845 1300.2783629012492 490.43532887798983Q1292.9275894868765 476.590451131371 1292.9275894868765 457.90953824371775L1292.9275894868765 457.90953824371775Q1292.9275894868765 442.7658396306497 1298.0952384661537 429.9434378852782Q1303.2628874454304 417.12103613990666 1312.630978375777 407.6700417499992Q1321.971434819604 398.2190473600918 1334.6003951593339 393.02376389429475Q1347.2569899855844 387.8561149150178 1362.3730541121322 387.8561149150178L1362.3730541121322 387.8561149150178Q1368.5355446061362 387.8561149150178 1374.6980351001403 388.54697707802273Q1380.8605255941438 389.2654737275479 1385.8347331677796 390.260315242275Q1390.808940741415 391.2551567570021 1393.904003231677 391.946018920007Q1396.9990657219391 392.63688108301193 1396.9990657219391 392.63688108301193L1396.9990657219391 392.63688108301193L1397.7728313445045 393.8251640033804Q1397.7728313445045 393.8251640033804 1396.7779898297777 398.3019508196524Q1395.7831483150508 402.7787376359243 1394.594865394682 410.35058694245834Q1393.4065824743138 417.8948017624722 1392.7986237708692 427.0694512871777L1392.7986237708692 427.0694512871777L1383.2647259214014 427.8432169097432Q1383.2647259214014 427.8432169097432 1383.5687052731232 424.5823475003599Q1383.8450501383254 421.2938436044564 1383.8450501383254 418.1158776546338L1383.8450501383254 418.1158776546338Q1383.8450501383254 408.7477867242869 1376.6048146700336 404.18809644845436Q1369.3369447152218 399.6007716861016 1354.6077633999566 399.6007716861016L1354.6077633999566 399.6007716861016Q1341.2879408972217 399.6007716861016 1331.4224292095114 405.956703585747Q1321.5845520083212 412.34026997191256 1316.1958271368826 423.86385085083475Q1310.8347367519646 435.4150662162772 1310.8347367519646 451.33253045191077L1310.8347367519646 451.33253045191077Q1310.8347367519646 468.8527949057158 1316.499806488605 481.8686380567287Q1322.1648762252453 494.9121156942618 1332.4172707242383 502.1799856490736Q1342.6696652232317 509.4202211173653 1356.4040050237695 509.4202211173653L1356.4040050237695 509.4202211173653Q1369.9172689321458 509.4202211173653 1378.179980401685 501.76546835127067Q1386.4426918712238 494.1107155851761 1390.228616524491 477.9998099439011L1390.228616524491 477.9998099439011L1399.7625143739588 477.1984098348154Q1399.7625143739588 477.1984098348154 1399.1821901570347 480.18293437899666Q1398.5742314535905 483.16745892317795 1397.6899278849442 488.03112855073266Q1396.7779898297777 492.92243266480756 1395.8936862611313 498.587502401448Q1395.009382692485 504.25257213808845 1394.4014239890407 509.6412970095269L1394.4014239890407 509.6412970095269L1393.213141068672 511.4099041468195Q1393.213141068672 511.4099041468195 1387.9349541433144 513.3995871762737Q1382.6567672179567 515.3892702057279 1373.5097521797716 517.378953235182Q1364.3627371415864 519.3686362646363 1352.424638964861 519.3686362646363ZM1414.9062129870272 519.3686362646363L1414.9062129870272 519.3686362646363L1415.6799786095926 511.21646274117813Q1421.455586292314 509.6412970095269 1423.74924867349 507.1541932227091Q1426.0429110546665 504.6670894358914 1426.4297938659493 500.4666474848214Q1426.8443111637525 496.29384002027166 1426.8443111637525 490.1313495262676L1426.8443111637525 490.1313495262676L1426.8443111637525 392.4434396773706Q1426.8443111637525 387.46923210373507 1425.9323731085856 385.1755697225587Q1425.0480695399392 382.8819073413823 1422.5609657531218 382.3015831244582Q1420.0738619663039 381.69362442101385 1415.0996543926685 382.3015831244582L1415.0996543926685 382.3015831244582L1414.491695689224 381.88706582665526L1415.2930957983099 375.11661662920693Q1422.6438692126821 374.1217751144798 1430.022277113575 372.74005078846994Q1437.3730505279473 371.35832646246007 1444.7514584288401 369.3686434330059L1444.7514584288401 369.3686434330059L1445.9397413492084 371.93865067938424Q1445.1383412401228 373.3480094919143 1444.3369411310368 381.00276225800894Q1443.5355410219513 388.6575150241036 1442.8446788589463 401.0930339581923Q1442.1538166959413 413.528552892281 1441.545857992497 429.25257572227326Q1440.965533775573 444.97659855226544 1440.6615544238507 462.46922851955026Q1440.3575750721288 479.98949297335525 1440.3575750721288 497.4821229406401L1440.3575750721288 497.4821229406401Q1440.3575750721288 503.4511720290027 1441.9603752903 506.0488137619012Q1443.5355410219513 508.64645549479974 1447.3214656752184 508.64645549479974L1447.3214656752184 508.64645549479974L1454.285356278308 508.2319381969968L1454.6998735761108 509.03333830608256L1453.0970733579397 517.6000291273436Q1449.9191074081168 517.378953235182 1444.6409204827592 517.1855118295407Q1439.3627335574015 516.9920704238993 1435.383367498493 516.9920704238993L1435.383367498493 516.9920704238993Q1431.8185187373879 516.9920704238993 1426.3468904063889 517.6829325869043Q1420.8752620753899 518.3737947499092 1414.9062129870272 519.3686362646363ZM1503.8339906090218 519.3686362646363L1503.8339906090218 519.3686362646363Q1492.5038511357407 519.3686362646363 1483.7437189088382 513.8141044740767Q1474.9835866819358 508.2319381969968 1470.119917054381 498.2006195901653Q1465.228612940306 488.14166649681346 1465.228612940306 475.20872680536115L1465.228612940306 475.20872680536115Q1465.228612940306 460.89406278789903 1471.3081999747496 449.4533853685374Q1477.3601525226727 438.01270794917576 1487.916526373388 431.32516221128805Q1498.4729002241033 424.6652509599205 1511.4058399155556 424.6652509599205L1511.4058399155556 424.6652509599205Q1522.7359793888368 424.6652509599205 1531.4961116157392 430.2474172370003Q1540.2562438426417 435.80194902756 1545.119913470196 445.75036417483096Q1549.9835830977509 455.6987793221019 1549.9835830977509 468.8527949057158L1549.9835830977509 468.8527949057158Q1549.9835830977509 482.9740175175366 1543.9316305498278 494.4975983964588Q1537.8520435153841 506.0488137619012 1527.4062076107498 512.7087250132688Q1516.960371706115 519.3686362646363 1503.8339906090218 519.3686362646363ZM1509.4161568861014 509.6412970095269L1509.4161568861014 509.6412970095269Q1520.5528549537407 509.6412970095269 1527.1022282590275 500.5771854309022Q1533.6792360508348 491.5130738522775 1533.6792360508348 476.0101269144469L1533.6792360508348 476.0101269144469Q1533.6792360508348 464.0720287377217 1530.086752803209 454.9250136995364Q1526.5219040421034 445.75036417483096 1520.138337655938 440.5827151955541Q1513.7824057562925 435.4150662162772 1505.436790827193 435.4150662162772L1505.436790827193 435.4150662162772Q1494.2724582730334 435.4150662162772 1487.7230849677467 444.5620812544625Q1481.1460771759398 453.70909629264776 1481.1460771759398 469.43311912263994L1481.1460771759398 469.43311912263994Q1481.1460771759398 481.3712172993651 1484.7385604235656 490.43532887798983Q1488.3034091846707 499.4718059700943 1494.6869755708362 504.5565514898106Q1501.0429074704816 509.6412970095269 1509.4161568861014 509.6412970095269ZM1591.186602499365 519.3686362646363L1591.186602499365 519.3686362646363Q1584.0292704906337 519.3686362646363 1578.6405456191956 518.2908912903486Q1573.2794552342775 517.1855118295407 1570.3778341496563 516.1906703148136Q1567.5038475515557 515.1958288000865 1567.5038475515557 515.1958288000865L1567.5038475515557 515.1958288000865L1566.8958888481116 513.8141044740767Q1567.3104061459148 511.6309800389811 1567.807826903278 506.5462345192648Q1568.3052476606417 501.4614889995485 1568.8026684180054 495.90695720898884Q1569.3000891753686 490.32479093190904 1569.3000891753686 487.14682498208634L1569.3000891753686 487.14682498208634L1576.2639797784586 486.1519834673593Q1576.2639797784586 499.27836456445294 1580.6302286486498 504.6670894358914Q1585.024112005361 510.0281798208096 1595.5528513695558 510.0281798208096L1595.5528513695558 510.0281798208096Q1603.12470067609 510.0281798208096 1608.2923496553672 506.6567724653456Q1613.4599986346439 503.25773062336134 1613.4599986346439 498.2835230497259L1613.4599986346439 498.2835230497259Q1613.4599986346439 494.9121156942618 1611.4703156051896 492.12103255572185Q1609.4806325757354 489.3299494171819 1604.5064250021 485.9585420617179Q1599.5322174284647 482.55950021973365 1590.3852023902796 477.8063685382597L1590.3852023902796 477.8063685382597Q1579.0550629169984 472.0307608555385 1573.8597794512016 466.0617117671759Q1568.6921304719244 460.09266267881327 1568.6921304719244 452.93533067008224L1568.6921304719244 452.93533067008224Q1568.6921304719244 444.75552266010385 1573.4728966399184 438.3995907604585Q1578.2536628079129 432.04365886081314 1586.5992777370125 428.34063766710676Q1594.9725271526318 424.6652509599205 1605.3078251111856 424.6652509599205L1605.3078251111856 424.6652509599205Q1613.4599986346439 424.6652509599205 1619.3461442634457 426.2680511780919Q1625.2046554057279 427.8432169097432 1625.2046554057279 427.8432169097432L1625.2046554057279 427.8432169097432L1625.5915382170106 428.83805842447026Q1625.5915382170106 428.83805842447026 1624.9006760540055 432.23710026645455Q1624.2098138910005 435.6085076219186 1623.3255103223541 441.08013595291766Q1622.4135722671876 446.55176428391667 1621.8332480502636 453.12877207572365L1621.8332480502636 453.12877207572365L1614.4548401493712 453.70909629264776Q1614.4548401493712 453.70909629264776 1614.6482815550125 451.5259718575522Q1614.869357447174 449.3428474224566 1614.869357447174 447.9611230964467L1614.869357447174 447.9611230964467Q1614.869357447174 440.77615660119545 1610.9728948478264 437.5152871918122Q1607.1040667349985 434.2267832959087 1598.5373759137374 434.2267832959087L1598.5373759137374 434.2267832959087Q1591.7669267162892 434.2267832959087 1587.0966984943757 437.4047492457314Q1582.4264702724622 440.5827151955541 1582.4264702724622 445.17003995790685L1582.4264702724622 445.17003995790685Q1582.4264702724622 449.95080612590095 1586.5163742774516 454.1236135904507Q1590.5786437959205 458.2964210550005 1599.725658834106 463.07718722299455L1599.725658834106 463.07718722299455Q1610.4754740904627 468.63171901355423 1616.555061124906 473.1085058298262Q1622.6070136728295 477.58529264609814 1625.094117459647 481.78573459716813Q1627.5812212464648 485.9585420617179 1627.5812212464648 490.9327496353534L1627.5812212464648 490.9327496353534Q1627.5812212464648 498.47696445536724 1622.5241102132686 505.05397224717416Q1617.4393646935523 511.6309800389811 1609.1766532240135 515.4998081518087Q1600.9415762409944 519.3686362646363 1591.186602499365 519.3686362646363ZM1686.0834292097225 519.3686362646363L1686.0834292097225 519.3686362646363Q1673.565006816073 519.3686362646363 1664.196915885726 513.8141044740767Q1654.8564594418995 508.2319381969968 1649.5782725165418 498.3940609958066Q1644.3000855911841 488.5285493080962 1644.3000855911841 475.40216821100256L1644.3000855911841 475.40216821100256Q1644.3000855911841 465.2603116580902 1647.782030892729 456.11329661990493Q1651.2639761942737 446.9662815817196 1657.4264666882777 439.89185303254914Q1663.616591668802 432.81742448337866 1671.4647858405378 428.7551549649097Q1679.3129800122738 424.6652509599205 1688.2665536448176 424.6652509599205L1688.2665536448176 424.6652509599205Q1717.9183576809892 424.6652509599205 1717.9183576809892 453.51565488700635L1717.9183576809892 453.51565488700635Q1717.9183576809892 456.11329661990493 1717.5314748697065 458.90437975844486Q1717.1169575719036 461.66782841046455 1716.730074760621 463.270628628636L1716.730074760621 463.270628628636L1714.1324330277225 465.64719446937295L1659.2227083120906 465.64719446937295Q1659.0292669064493 483.36090032881935 1665.6891781578165 493.6132948278125Q1672.3490894091842 503.86568932680564 1684.508263478071 505.55139300453766Q1696.6398030604378 507.23709668226974 1713.1375915129952 499.6928818622559L1713.1375915129952 499.6928818622559L1714.353508919884 500.07976467353865L1716.5366333549796 505.85537235625986Q1712.5572672960711 508.64645549479974 1707.0856389650721 511.82442144462243Q1701.614010634073 515.0023873944451 1696.0318443569931 517.1855118295407Q1690.4773125664337 519.3686362646363 1686.0834292097225 519.3686362646363ZM1660.0241084211762 458.2964210550005L1660.0241084211762 458.2964210550005L1696.0318443569931 456.5001794311877Q1699.0163689011747 456.11329661990493 1700.0112104159016 455.1184551051778Q1701.0060519306285 454.1236135904507 1701.0060519306285 451.1390890462694L1701.0060519306285 451.1390890462694Q1701.0060519306285 443.1803569284526 1696.7227065199982 439.0075494639028Q1692.466995595888 434.8071075128329 1684.508263478071 434.8071075128329L1684.508263478071 434.8071075128329Q1675.3336139533653 434.8071075128329 1668.5907992424372 441.08013595291766Q1661.820350044989 447.35316439300243 1660.0241084211762 458.2964210550005ZM1767.2735506060617 519.3686362646363L1767.2735506060617 519.3686362646363Q1753.7326522111648 519.3686362646363 1748.178120420605 513.8970079336373Q1742.5959541435254 508.4253796026382 1742.5959541435254 495.29899850554455L1742.5959541435254 495.29899850554455L1742.5959541435254 446.3583228782753Q1742.5959541435254 440.99723249335705 1740.2193883027885 438.7864735717413Q1737.8151879755314 436.6033491366457 1731.2658146702447 436.4099077310043L1731.2658146702447 436.4099077310043L1730.4644145611587 435.22162481063583L1731.459256075886 429.25257572227326Q1736.24002224388 426.8483753950161 1740.7168090601522 423.7809473912742Q1745.1935958764238 420.6858849010121 1748.6755411779686 417.8118983029116Q1752.1574864795139 414.9102772182909 1754.1471695089676 413.03113213491747Q1756.1368525384219 411.1519870515441 1756.1368525384219 411.1519870515441L1756.1368525384219 411.1519870515441L1760.1162185973303 412.7271527831953Q1760.1162185973303 412.7271527831953 1759.6187978399666 416.5130774364623Q1759.1213770826034 420.29900208972936 1758.5134183791588 427.6497755041018L1758.5134183791588 427.6497755041018L1787.7507051175276 427.0694512871777L1788.3586638209717 427.6497755041018L1786.5624221971589 438.2061493548171L1757.7120182700733 437.59819065137276Q1757.1316940531492 446.9662815817196 1756.7171767553464 459.484703975369Q1756.3302939440632 472.0307608555385 1756.3302939440632 487.34026638772775L1756.3302939440632 487.34026638772775Q1756.3302939440632 497.4821229406401 1759.8122392456085 501.68256489171006Q1763.2941845471532 505.85537235625986 1771.8332408818937 505.85537235625986L1771.8332408818937 505.85537235625986Q1776.8074484555295 505.85537235625986 1781.0907938661603 504.05913073244704Q1785.3741392767906 502.2628891086342 1785.3741392767906 502.2628891086342L1785.3741392767906 502.2628891086342L1787.3638223062449 507.43053808791115Q1787.3638223062449 507.43053808791115 1784.987256465508 509.2267797117239Q1782.5830561382509 511.0230213355368 1779.1011108367056 513.3995871762737Q1775.6191655351608 515.8037875035309 1772.3306616392574 517.6000291273436Q1769.069792229874 519.3686362646363 1767.2735506060617 519.3686362646363Z " fill="#b88746" transform="matrix(0.48927543913744814,0,0,0.48927543913744814,0,82.58131255963337)"/></g></svg>